<svg width="63" height="62" viewBox="0 0 63 62" fill="none" xmlns="http://www.w3.org/2000/svg">
<path d="M4.29335 38.2668C1.98016 27.4644 0.820343 22.0616 3.7231 18.4758C6.62264 14.8868 12.1479 14.8868 23.1951 14.8868H39.8062C50.8567 14.8868 56.3755 14.8868 59.2783 18.4758C62.1778 22.0648 61.0212 27.4644 58.708 38.2668L57.3259 44.7102C55.7569 52.0332 54.9741 55.693 52.3161 57.8419C49.6582 59.9908 45.9146 59.9908 38.4274 59.9908H24.574C17.0868 59.9908 13.3431 59.9908 10.6884 57.8419C8.02731 55.693 7.24121 52.0332 5.67546 44.7102L4.29335 38.2668Z" stroke="#02D90B" stroke-width="4"/>
<path d="M2.50537 27.7737H60.4961M25.0573 37.4388H37.9442M50.831 21.3303L41.1659 2M12.1705 21.3303L21.8356 2" stroke="#02D90B" stroke-width="4" stroke-linecap="round" stroke-linejoin="round"/>
</svg>
